<svg xmlns="http://www.w3.org/2000/svg" viewBox="0 0 256.28 69.83"><defs><style>.cls-1{fill:#fff;}.cls-2{fill:#26b7cd;}</style></defs><g id="Layer_2" data-name="Layer 2"><g id="Layer_1-2" data-name="Layer 1"><path class="cls-1" d="M121.39,34.83A10.68,10.68,0,0,0,132,45.57,10.52,10.52,0,0,0,142.4,34.83,10.43,10.43,0,0,0,132,24.2a10.55,10.55,0,0,0-10.6,10.63m29,0c0,9.91-7.95,17.5-18.45,17.5s-18.45-7.55-18.45-17.5,7.94-17.4,18.45-17.4,18.45,7.45,18.45,17.4"/><path class="cls-1" d="M179.76,35.38c0-6.24-4.36-10.55-10.17-10.55H163v21h6.93c5.66,0,9.83-4.25,9.83-10.45m7.57-.55c0,10-7.44,17-18.18,17H155v-34h14.44c10.55,0,17.89,7,17.89,17"/><path class="cls-1" d="M242.39,24c-2.6,0-4.37.93-4.37,2.8,0,6.32,18.31,2.79,18.26,15.14,0,6.72-5.84,10.35-13.45,10.35a24.11,24.11,0,0,1-15.16-5.45l3.09-6.32c3.53,3.14,8.54,5.15,12.17,5.15,3.19,0,5.1-1.18,5.1-3.29,0-6.47-18.3-2.69-18.3-14.85,0-6.23,5.35-10.15,13.3-10.15a24.5,24.5,0,0,1,13,3.73l-3,6.42c-3.63-2.16-8-3.53-10.7-3.53"/><path class="cls-1" d="M208.35,45.57c4.61,0,7.65-3,7.65-7.94V17.83h8v20c0,9.07-6.13,14.71-15.9,14.71S192,46.85,192,37.78v-20h8v19.8c0,4.95,3.24,7.94,7.85,7.94"/><polygon class="cls-1" points="88.29 17.83 95.39 28.23 102.54 17.83 111.63 17.83 100.3 34.1 112.6 51.83 103.41 51.83 95.39 40.52 87.51 51.83 78.52 51.83 90.72 34.45 79.35 17.83 88.29 17.83"/><path class="cls-2" d="M52,0,26,17.33V34.67L52,17.33Zm0,69.83V52.33L38.88,43.58l-7.3,12.64Zm-52-35,13.12,8.75L0,52.33v17.5L39.38,43.58,26.25,34.83,0,17.33Z"/></g></g></svg>